<svg width="319" height="46" viewBox="0 0 319 46" fill="none" xmlns="http://www.w3.org/2000/svg">
<g filter="url(#filter0_d_688_655)">
<path d="M305 0H14C8.47715 0 4 4.47715 4 10V28C4 33.5228 8.47715 38 14 38H305C310.523 38 315 33.5228 315 28V10C315 4.47715 310.523 0 305 0Z" fill="#CAE4C1"/>
<path d="M305 0.5H14C8.75329 0.5 4.5 4.75329 4.5 10V28C4.5 33.2467 8.75329 37.5 14 37.5H305C310.247 37.5 314.5 33.2467 314.5 28V10C314.5 4.75329 310.247 0.5 305 0.5Z" stroke="black"/>
</g>
<path d="M75.7751 13.106H77.5171V25.183H75.7751V13.106ZM71.0301 13.951C72.8501 13.951 74.1891 15.615 74.1891 18.241C74.1891 20.893 72.8501 22.557 71.0301 22.557C69.2101 22.557 67.8711 20.893 67.8711 18.241C67.8711 15.615 69.2101 13.951 71.0301 13.951ZM71.0301 15.524C70.1331 15.524 69.5221 16.473 69.5221 18.241C69.5221 20.035 70.1331 20.997 71.0301 20.997C71.9271 20.997 72.5251 20.035 72.5251 18.241C72.5251 16.473 71.9271 15.524 71.0301 15.524ZM79.8171 14.354H84.5751V22.154H79.8171V14.354ZM82.9631 15.706H81.4291V20.802H82.9631V15.706ZM88.1761 13.119H89.8271V25.157H88.1761V13.119ZM83.7041 17.487H86.4081V18.878H83.7041V17.487ZM85.7191 13.301H87.3441V24.611H85.7191V13.301ZM94.8311 13.47C96.6641 13.47 98.0421 14.614 98.0421 16.226C98.0421 17.825 96.6641 18.969 94.8311 18.969C92.9981 18.969 91.6201 17.825 91.6201 16.226C91.6201 14.614 92.9981 13.47 94.8311 13.47ZM94.8311 14.874C93.9471 14.874 93.2841 15.368 93.2841 16.226C93.2841 17.084 93.9471 17.578 94.8311 17.578C95.7151 17.578 96.3651 17.084 96.3651 16.226C96.3651 15.368 95.7151 14.874 94.8311 14.874ZM99.7061 13.119H101.448V19.138H99.7061V13.119ZM93.4141 19.632H101.448V22.934H95.1301V24.39H93.4401V21.686H99.7321V20.971H93.4141V19.632ZM93.4401 23.688H101.747V25.027H93.4401V23.688ZM114.674 13.132H116.416V21.777H114.674V13.132ZM108.395 23.571H116.715V24.949H108.395V23.571ZM108.395 20.906H110.124V24.13H108.395V20.906ZM109.864 13.886C111.71 13.886 113.127 15.16 113.127 16.941C113.127 18.709 111.71 19.996 109.864 19.996C108.018 19.996 106.588 18.709 106.588 16.941C106.588 15.16 108.018 13.886 109.864 13.886ZM109.864 15.381C108.967 15.381 108.278 15.953 108.278 16.941C108.278 17.916 108.967 18.488 109.864 18.488C110.748 18.488 111.437 17.916 111.437 16.941C111.437 15.953 110.748 15.381 109.864 15.381ZM118.365 18.67H129.246V20.035H118.365V18.67ZM123.786 20.698C126.386 20.698 127.959 21.517 127.959 22.934C127.959 24.351 126.386 25.157 123.786 25.157C121.186 25.157 119.6 24.351 119.6 22.934C119.6 21.517 121.186 20.698 123.786 20.698ZM123.786 22.037C122.174 22.037 121.355 22.31 121.355 22.934C121.355 23.545 122.174 23.831 123.786 23.831C125.398 23.831 126.217 23.545 126.217 22.934C126.217 22.31 125.398 22.037 123.786 22.037ZM122.616 14.354H124.15V14.653C124.15 16.447 122.525 17.942 119.418 18.215L118.82 16.876C121.459 16.642 122.616 15.589 122.616 14.653V14.354ZM123.461 14.354H124.995V14.653C124.995 15.589 126.139 16.642 128.791 16.876L128.193 18.215C125.099 17.942 123.461 16.46 123.461 14.653V14.354ZM119.353 13.678H128.271V15.043H119.353V13.678ZM135.771 13.717C138.306 13.717 140.269 15.108 140.269 17.201C140.269 19.307 138.306 20.685 135.771 20.685C133.236 20.685 131.273 19.307 131.273 17.201C131.273 15.108 133.236 13.717 135.771 13.717ZM135.771 15.121C134.133 15.121 132.963 15.901 132.963 17.201C132.963 18.488 134.133 19.268 135.771 19.268C137.409 19.268 138.579 18.488 138.579 17.201C138.579 15.901 137.409 15.121 135.771 15.121ZM130.337 22.297H141.231V23.714H130.337V22.297ZM142.296 22.427H153.19V23.831H142.296V22.427ZM146.859 20.152H148.588V22.999H146.859V20.152ZM143.518 13.899H151.968V17.903H145.26V19.931H143.544V16.551H150.252V15.264H143.518V13.899ZM143.544 19.242H152.241V20.633H143.544V19.242ZM165.505 13.106H167.247V25.183H165.505V13.106ZM157.848 14.068H159.564V16.993H162.047V14.068H163.763V22.375H157.848V14.068ZM159.564 18.332V20.984H162.047V18.332H159.564ZM169.82 13.717H175.657V18.813H169.82V13.717ZM173.967 15.069H171.51V17.461H173.967V15.069ZM177.477 13.119H179.219V19.19H177.477V13.119ZM171.185 19.71H179.219V22.986H172.901V24.208H171.198V21.751H177.503V21.036H171.185V19.71ZM171.198 23.74H179.518V25.079H171.198V23.74ZM186.862 16.317H189.956V17.695H186.862V16.317ZM189.514 13.132H191.243V22.011H189.514V13.132ZM183.274 23.571H191.503V24.949H183.274V23.571ZM183.274 21.14H185.016V24.364H183.274V21.14ZM181.675 13.912H183.391V15.745H185.679V13.912H187.369V20.126H181.675V13.912ZM183.391 17.058V18.761H185.679V17.058H183.391ZM193.595 14.614H203.527V15.992H193.595V14.614ZM193.14 22.557H204.034V23.948H193.14V22.557ZM197.703 20.971H199.419V23.103H197.703V20.971ZM198.548 16.512C201.057 16.512 202.63 17.383 202.63 18.865C202.63 20.347 201.057 21.218 198.548 21.218C196.039 21.218 194.466 20.347 194.466 18.865C194.466 17.383 196.039 16.512 198.548 16.512ZM198.548 17.851C197.04 17.851 196.234 18.176 196.234 18.865C196.234 19.554 197.04 19.866 198.548 19.866C200.056 19.866 200.862 19.554 200.862 18.865C200.862 18.176 200.056 17.851 198.548 17.851ZM197.703 13.249H199.419V15.472H197.703V13.249ZM213.997 15.134H217.065V16.499H213.997V15.134ZM213.997 17.721H217.117V19.086H213.997V17.721ZM216.441 13.132H218.17V22.011H216.441V13.132ZM210.201 23.571H218.43V24.949H210.201V23.571ZM210.201 21.14H211.943V24.364H210.201V21.14ZM208.602 13.912H210.318V15.745H212.606V13.912H214.296V20.126H208.602V13.912ZM210.318 17.058V18.761H212.606V17.058H210.318ZM225.852 15.017H228.673V16.395H225.852V15.017ZM225.761 17.513H228.582V18.891H225.761V17.513ZM228.4 13.119H230.129V20.048H228.4V13.119ZM224.474 13.938H226.32C226.32 17.214 224.474 19.32 220.821 20.321L220.145 18.956C223.2 18.163 224.474 16.655 224.474 14.77V13.938ZM220.808 13.938H225.683V15.316H220.808V13.938ZM226.138 20.204C228.582 20.204 230.207 21.14 230.207 22.648C230.207 24.156 228.582 25.105 226.138 25.105C223.694 25.105 222.069 24.156 222.069 22.648C222.069 21.14 223.694 20.204 226.138 20.204ZM226.138 21.53C224.669 21.53 223.785 21.907 223.785 22.648C223.785 23.389 224.669 23.753 226.138 23.753C227.62 23.753 228.504 23.389 228.504 22.648C228.504 21.907 227.62 21.53 226.138 21.53ZM239.735 13.119H241.451V25.157H239.735V13.119ZM241.061 17.812H243.193V19.255H241.061V17.812ZM231.961 14.9H238.968V16.278H231.961V14.9ZM235.484 16.954C237.239 16.954 238.539 18.15 238.539 19.827C238.539 21.504 237.239 22.7 235.484 22.7C233.729 22.7 232.429 21.504 232.429 19.827C232.429 18.15 233.729 16.954 235.484 16.954ZM235.484 18.358C234.665 18.358 234.08 18.904 234.08 19.827C234.08 20.75 234.665 21.296 235.484 21.296C236.303 21.296 236.888 20.75 236.888 19.827C236.888 18.904 236.303 18.358 235.484 18.358ZM234.613 13.314H236.342V15.42H234.613V13.314ZM252.266 13.119H254.008V25.157H252.266V13.119ZM248.717 14.367H250.433C250.433 18.046 249.185 21.062 244.908 23.129L244.011 21.751C247.469 20.087 248.717 17.903 248.717 14.679V14.367ZM244.648 14.367H249.536V15.732H244.648V14.367Z" fill="white"/>
<defs>
<filter id="filter0_d_688_655" x="0" y="0" width="319" height="46" filterUnits="userSpaceOnUse" color-interpolation-filters="sRGB">
<feFlood flood-opacity="0" result="BackgroundImageFix"/>
<feColorMatrix in="SourceAlpha" type="matrix" values="0 0 0 0 0 0 0 0 0 0 0 0 0 0 0 0 0 0 127 0" result="hardAlpha"/>
<feOffset dy="4"/>
<feGaussianBlur stdDeviation="2"/>
<feComposite in2="hardAlpha" operator="out"/>
<feColorMatrix type="matrix" values="0 0 0 0 0 0 0 0 0 0 0 0 0 0 0 0 0 0 0.25 0"/>
<feBlend mode="normal" in2="BackgroundImageFix" result="effect1_dropShadow_688_655"/>
<feBlend mode="normal" in="SourceGraphic" in2="effect1_dropShadow_688_655" result="shape"/>
</filter>
</defs>
</svg>
