<svg width="311" height="38" viewBox="0 0 311 38" fill="none" xmlns="http://www.w3.org/2000/svg">
<rect width="311" height="38" rx="10" fill="#CAE4C1"/>
<path d="M114.775 13.106H116.517V25.183H114.775V13.106ZM107.118 14.068H108.834V16.993H111.317V14.068H113.033V22.375H107.118V14.068ZM108.834 18.332V20.984H111.317V18.332H108.834ZM119.09 13.717H124.927V18.813H119.09V13.717ZM123.237 15.069H120.78V17.461H123.237V15.069ZM126.747 13.119H128.489V19.19H126.747V13.119ZM120.455 19.71H128.489V22.986H122.171V24.208H120.468V21.751H126.773V21.036H120.455V19.71ZM120.468 23.74H128.788V25.079H120.468V23.74ZM136.132 16.317H139.226V17.695H136.132V16.317ZM138.784 13.132H140.513V22.011H138.784V13.132ZM132.544 23.571H140.773V24.949H132.544V23.571ZM132.544 21.14H134.286V24.364H132.544V21.14ZM130.945 13.912H132.661V15.745H134.949V13.912H136.639V20.126H130.945V13.912ZM132.661 17.058V18.761H134.949V17.058H132.661ZM142.865 14.614H152.797V15.992H142.865V14.614ZM142.41 22.557H153.304V23.948H142.41V22.557ZM146.973 20.971H148.689V23.103H146.973V20.971ZM147.818 16.512C150.327 16.512 151.9 17.383 151.9 18.865C151.9 20.347 150.327 21.218 147.818 21.218C145.309 21.218 143.736 20.347 143.736 18.865C143.736 17.383 145.309 16.512 147.818 16.512ZM147.818 17.851C146.31 17.851 145.504 18.176 145.504 18.865C145.504 19.554 146.31 19.866 147.818 19.866C149.326 19.866 150.132 19.554 150.132 18.865C150.132 18.176 149.326 17.851 147.818 17.851ZM146.973 13.249H148.689V15.472H146.973V13.249ZM163.267 15.134H166.335V16.499H163.267V15.134ZM163.267 17.721H166.387V19.086H163.267V17.721ZM165.711 13.132H167.44V22.011H165.711V13.132ZM159.471 23.571H167.7V24.949H159.471V23.571ZM159.471 21.14H161.213V24.364H159.471V21.14ZM157.872 13.912H159.588V15.745H161.876V13.912H163.566V20.126H157.872V13.912ZM159.588 17.058V18.761H161.876V17.058H159.588ZM175.122 15.017H177.943V16.395H175.122V15.017ZM175.031 17.513H177.852V18.891H175.031V17.513ZM177.67 13.119H179.399V20.048H177.67V13.119ZM173.744 13.938H175.59C175.59 17.214 173.744 19.32 170.091 20.321L169.415 18.956C172.47 18.163 173.744 16.655 173.744 14.77V13.938ZM170.078 13.938H174.953V15.316H170.078V13.938ZM175.408 20.204C177.852 20.204 179.477 21.14 179.477 22.648C179.477 24.156 177.852 25.105 175.408 25.105C172.964 25.105 171.339 24.156 171.339 22.648C171.339 21.14 172.964 20.204 175.408 20.204ZM175.408 21.53C173.939 21.53 173.055 21.907 173.055 22.648C173.055 23.389 173.939 23.753 175.408 23.753C176.89 23.753 177.774 23.389 177.774 22.648C177.774 21.907 176.89 21.53 175.408 21.53ZM189.005 13.119H190.721V25.157H189.005V13.119ZM190.331 17.812H192.463V19.255H190.331V17.812ZM181.231 14.9H188.238V16.278H181.231V14.9ZM184.754 16.954C186.509 16.954 187.809 18.15 187.809 19.827C187.809 21.504 186.509 22.7 184.754 22.7C182.999 22.7 181.699 21.504 181.699 19.827C181.699 18.15 182.999 16.954 184.754 16.954ZM184.754 18.358C183.935 18.358 183.35 18.904 183.35 19.827C183.35 20.75 183.935 21.296 184.754 21.296C185.573 21.296 186.158 20.75 186.158 19.827C186.158 18.904 185.573 18.358 184.754 18.358ZM183.883 13.314H185.612V15.42H183.883V13.314ZM201.536 13.119H203.278V25.157H201.536V13.119ZM197.987 14.367H199.703C199.703 18.046 198.455 21.062 194.178 23.129L193.281 21.751C196.739 20.087 197.987 17.903 197.987 14.679V14.367ZM193.918 14.367H198.806V15.732H193.918V14.367Z" fill="white"/>
</svg>
