<svg width="49" height="56" viewBox="0 0 49 56" fill="none" xmlns="http://www.w3.org/2000/svg">
<g id="Group 6168">
<rect id="Rectangle 1702" width="31.7612" height="9.40298" fill="#CAE4C1"/>
<rect id="Rectangle 1703" y="12.5374" width="31.3433" height="9.40298" fill="#CAE4C1"/>
<rect id="Rectangle 1704" y="55.373" width="42.8358" height="9.40298" transform="rotate(-90 0 55.373)" fill="#CAE4C1"/>
<rect id="Rectangle 1705" x="12.5371" y="25.0745" width="19.2239" height="9.40298" fill="#CAE4C1"/>
<circle id="Ellipse 11" cx="31.3431" cy="17.2388" r="4.70149" fill="#CAE4C1"/>
<path id="Subtract" fill-rule="evenodd" clip-rule="evenodd" d="M49 17.2388C49 26.7595 41.282 34.4776 31.7612 34.4776L31.7612 25.0746C36.0888 25.0746 39.597 21.5664 39.597 17.2388C39.597 12.9112 36.0888 9.40298 31.7612 9.40298L31.7612 0C41.282 0 49 7.71807 49 17.2388Z" fill="#CAE4C1"/>
<path id="Subtract_2" fill-rule="evenodd" clip-rule="evenodd" d="M29.0072 55.3731H15.7093L0 39.6638L6.64891 33.0149L29.0072 55.3731Z" fill="#CAE4C1"/>
<path id="Subtract_3" fill-rule="evenodd" clip-rule="evenodd" d="M33.4704 55.3732H46.7677L46.7679 55.3729L19.186 27.791L12.5371 34.4399L33.4704 55.3732Z" fill="#CAE4C1"/>
</g>
</svg>
