<svg width="158" height="18" viewBox="0 0 158 18" fill="none" xmlns="http://www.w3.org/2000/svg">
<mask id="path-1-outside-1_152_1594" maskUnits="userSpaceOnUse" x="-1" y="-1" width="160" height="20" fill="black">
<rect fill="white" x="-1" y="-1" width="160" height="20"/>
<path d="M16.448 5.552C16.448 6.56 16.176 7.472 15.632 8.288C15.088 9.104 14.296 9.704 13.256 10.088L16.928 17H10.976L8.048 10.976H6.08V17H0.776V0.487999H10.88C12.064 0.487999 13.072 0.719999 13.904 1.184C14.752 1.632 15.384 2.248 15.8 3.032C16.232 3.8 16.448 4.64 16.448 5.552ZM11.048 5.768C11.048 5.336 10.904 4.976 10.616 4.688C10.328 4.4 9.976 4.256 9.56 4.256H6.08V7.304H9.56C9.976 7.304 10.328 7.16 10.616 6.872C10.904 6.568 11.048 6.2 11.048 5.768ZM27.2653 0.199999C30.1133 0.199999 32.3133 0.927999 33.8653 2.384C35.4173 3.84 36.1933 5.96 36.1933 8.744C36.1933 11.528 35.4173 13.648 33.8653 15.104C32.3133 16.56 30.1133 17.288 27.2653 17.288C24.4173 17.288 22.2173 16.568 20.6653 15.128C19.1293 13.672 18.3613 11.544 18.3613 8.744C18.3613 5.944 19.1293 3.824 20.6653 2.384C22.2173 0.927999 24.4173 0.199999 27.2653 0.199999ZM27.2653 4.16C26.1293 4.16 25.2653 4.504 24.6733 5.192C24.0813 5.88 23.7853 6.808 23.7853 7.976V9.512C23.7853 10.68 24.0813 11.608 24.6733 12.296C25.2653 12.984 26.1293 13.328 27.2653 13.328C28.4013 13.328 29.2653 12.984 29.8573 12.296C30.4653 11.608 30.7693 10.68 30.7693 9.512V7.976C30.7693 6.808 30.4653 5.88 29.8573 5.192C29.2653 4.504 28.4013 4.16 27.2653 4.16ZM46.9214 0.199999C49.3694 0.199999 51.3054 0.815999 52.7294 2.048C54.1534 3.264 54.8654 5.008 54.8654 7.28H49.8014C49.8014 6.32 49.5454 5.56 49.0334 5C48.5374 4.44 47.8254 4.16 46.8974 4.16C45.8254 4.16 45.0334 4.496 44.5214 5.168C44.0254 5.84 43.7774 6.776 43.7774 7.976V9.512C43.7774 10.696 44.0254 11.632 44.5214 12.32C45.0334 12.992 45.8094 13.328 46.8494 13.328C47.8734 13.328 48.6494 13.064 49.1774 12.536C49.7054 12.008 49.9694 11.264 49.9694 10.304H54.8654C54.8654 12.56 54.1694 14.288 52.7774 15.488C51.4014 16.688 49.4494 17.288 46.9214 17.288C44.1054 17.288 41.9694 16.568 40.5134 15.128C39.0734 13.688 38.3534 11.56 38.3534 8.744C38.3534 5.928 39.0734 3.8 40.5134 2.36C41.9694 0.919999 44.1054 0.199999 46.9214 0.199999ZM65.6011 0.199999C68.0491 0.199999 69.9851 0.815999 71.4091 2.048C72.8331 3.264 73.5451 5.008 73.5451 7.28H68.4811C68.4811 6.32 68.2251 5.56 67.7131 5C67.2171 4.44 66.5051 4.16 65.5771 4.16C64.5051 4.16 63.7131 4.496 63.2011 5.168C62.7051 5.84 62.4571 6.776 62.4571 7.976V9.512C62.4571 10.696 62.7051 11.632 63.2011 12.32C63.7131 12.992 64.4891 13.328 65.5291 13.328C66.5531 13.328 67.3291 13.064 67.8571 12.536C68.3851 12.008 68.6491 11.264 68.6491 10.304H73.5451C73.5451 12.56 72.8491 14.288 71.4571 15.488C70.0811 16.688 68.1291 17.288 65.6011 17.288C62.7851 17.288 60.6491 16.568 59.1931 15.128C57.7531 13.688 57.0331 11.56 57.0331 8.744C57.0331 5.928 57.7531 3.8 59.1931 2.36C60.6491 0.919999 62.7851 0.199999 65.6011 0.199999ZM76.6488 17V0.487999H81.9528V17H76.6488ZM96.8009 17L96.1049 14.672H90.3209L89.6249 17H84.2009L90.2249 0.487999H96.3929L102.417 17H96.8009ZM91.4249 10.976H95.0009L93.2729 5.096H93.1769L91.4249 10.976ZM118.505 0.199999C120.921 0.199999 122.713 0.863999 123.881 2.192C125.065 3.504 125.657 5.552 125.657 8.336C125.657 11.488 125.073 13.768 123.905 15.176C122.753 16.584 120.953 17.288 118.505 17.288C116.505 17.288 114.905 16.808 113.705 15.848C112.505 14.872 111.905 13.496 111.905 11.72H116.177V11.888C116.177 12.512 116.369 13.032 116.753 13.448C117.137 13.848 117.697 14.048 118.433 14.048C119.185 14.048 119.769 13.792 120.185 13.28C120.617 12.752 120.833 12.048 120.833 11.168V9.776C120.369 10.192 119.817 10.504 119.177 10.712C118.537 10.92 117.929 11.024 117.353 11.024C116.249 11.024 115.249 10.832 114.353 10.448C113.473 10.048 112.777 9.472 112.265 8.72C111.753 7.952 111.497 7.032 111.497 5.96C111.497 4.136 112.121 2.72 113.369 1.712C114.633 0.703999 116.345 0.199999 118.505 0.199999ZM118.481 3.44C117.729 3.44 117.145 3.648 116.729 4.064C116.329 4.464 116.129 5.04 116.129 5.792C116.129 6.544 116.329 7.128 116.729 7.544C117.129 7.944 117.705 8.144 118.457 8.144C119.225 8.144 119.809 7.952 120.209 7.568C120.625 7.168 120.833 6.592 120.833 5.84C120.833 5.088 120.625 4.504 120.209 4.088C119.809 3.656 119.233 3.44 118.481 3.44ZM134.657 0.199999C137.233 0.199999 139.041 0.935999 140.081 2.408C141.137 3.864 141.665 5.976 141.665 8.744C141.665 11.512 141.137 13.632 140.081 15.104C139.041 16.56 137.233 17.288 134.657 17.288C132.065 17.288 130.241 16.56 129.185 15.104C128.145 13.632 127.625 11.512 127.625 8.744C127.625 5.976 128.145 3.864 129.185 2.408C130.241 0.935999 132.065 0.199999 134.657 0.199999ZM134.657 3.44C133.825 3.44 133.233 3.76 132.881 4.4C132.529 5.04 132.353 6.088 132.353 7.544V9.92C132.353 11.392 132.529 12.448 132.881 13.088C133.233 13.728 133.825 14.048 134.657 14.048C135.489 14.048 136.073 13.728 136.409 13.088C136.745 12.448 136.913 11.392 136.913 9.92V7.544C136.913 6.072 136.745 5.024 136.409 4.4C136.073 3.76 135.489 3.44 134.657 3.44ZM157.624 13.304V17H145.168V13.304H149.08V5.84H145.168V3.056C146.24 2.992 147.44 2.712 148.768 2.216C150.096 1.704 151.256 1.12 152.248 0.464H153.856V13.304H157.624Z"/>
</mask>
<path d="M16.448 5.552C16.448 6.56 16.176 7.472 15.632 8.288C15.088 9.104 14.296 9.704 13.256 10.088L16.928 17H10.976L8.048 10.976H6.08V17H0.776V0.487999H10.88C12.064 0.487999 13.072 0.719999 13.904 1.184C14.752 1.632 15.384 2.248 15.8 3.032C16.232 3.8 16.448 4.64 16.448 5.552ZM11.048 5.768C11.048 5.336 10.904 4.976 10.616 4.688C10.328 4.4 9.976 4.256 9.56 4.256H6.08V7.304H9.56C9.976 7.304 10.328 7.16 10.616 6.872C10.904 6.568 11.048 6.2 11.048 5.768ZM27.2653 0.199999C30.1133 0.199999 32.3133 0.927999 33.8653 2.384C35.4173 3.84 36.1933 5.96 36.1933 8.744C36.1933 11.528 35.4173 13.648 33.8653 15.104C32.3133 16.56 30.1133 17.288 27.2653 17.288C24.4173 17.288 22.2173 16.568 20.6653 15.128C19.1293 13.672 18.3613 11.544 18.3613 8.744C18.3613 5.944 19.1293 3.824 20.6653 2.384C22.2173 0.927999 24.4173 0.199999 27.2653 0.199999ZM27.2653 4.16C26.1293 4.16 25.2653 4.504 24.6733 5.192C24.0813 5.88 23.7853 6.808 23.7853 7.976V9.512C23.7853 10.68 24.0813 11.608 24.6733 12.296C25.2653 12.984 26.1293 13.328 27.2653 13.328C28.4013 13.328 29.2653 12.984 29.8573 12.296C30.4653 11.608 30.7693 10.68 30.7693 9.512V7.976C30.7693 6.808 30.4653 5.88 29.8573 5.192C29.2653 4.504 28.4013 4.16 27.2653 4.16ZM46.9214 0.199999C49.3694 0.199999 51.3054 0.815999 52.7294 2.048C54.1534 3.264 54.8654 5.008 54.8654 7.28H49.8014C49.8014 6.32 49.5454 5.56 49.0334 5C48.5374 4.44 47.8254 4.16 46.8974 4.16C45.8254 4.16 45.0334 4.496 44.5214 5.168C44.0254 5.84 43.7774 6.776 43.7774 7.976V9.512C43.7774 10.696 44.0254 11.632 44.5214 12.32C45.0334 12.992 45.8094 13.328 46.8494 13.328C47.8734 13.328 48.6494 13.064 49.1774 12.536C49.7054 12.008 49.9694 11.264 49.9694 10.304H54.8654C54.8654 12.56 54.1694 14.288 52.7774 15.488C51.4014 16.688 49.4494 17.288 46.9214 17.288C44.1054 17.288 41.9694 16.568 40.5134 15.128C39.0734 13.688 38.3534 11.56 38.3534 8.744C38.3534 5.928 39.0734 3.8 40.5134 2.36C41.9694 0.919999 44.1054 0.199999 46.9214 0.199999ZM65.6011 0.199999C68.0491 0.199999 69.9851 0.815999 71.4091 2.048C72.8331 3.264 73.5451 5.008 73.5451 7.28H68.4811C68.4811 6.32 68.2251 5.56 67.7131 5C67.2171 4.44 66.5051 4.16 65.5771 4.16C64.5051 4.16 63.7131 4.496 63.2011 5.168C62.7051 5.84 62.4571 6.776 62.4571 7.976V9.512C62.4571 10.696 62.7051 11.632 63.2011 12.32C63.7131 12.992 64.4891 13.328 65.5291 13.328C66.5531 13.328 67.3291 13.064 67.8571 12.536C68.3851 12.008 68.6491 11.264 68.6491 10.304H73.5451C73.5451 12.56 72.8491 14.288 71.4571 15.488C70.0811 16.688 68.1291 17.288 65.6011 17.288C62.7851 17.288 60.6491 16.568 59.1931 15.128C57.7531 13.688 57.0331 11.56 57.0331 8.744C57.0331 5.928 57.7531 3.8 59.1931 2.36C60.6491 0.919999 62.7851 0.199999 65.6011 0.199999ZM76.6488 17V0.487999H81.9528V17H76.6488ZM96.8009 17L96.1049 14.672H90.3209L89.6249 17H84.2009L90.2249 0.487999H96.3929L102.417 17H96.8009ZM91.4249 10.976H95.0009L93.2729 5.096H93.1769L91.4249 10.976ZM118.505 0.199999C120.921 0.199999 122.713 0.863999 123.881 2.192C125.065 3.504 125.657 5.552 125.657 8.336C125.657 11.488 125.073 13.768 123.905 15.176C122.753 16.584 120.953 17.288 118.505 17.288C116.505 17.288 114.905 16.808 113.705 15.848C112.505 14.872 111.905 13.496 111.905 11.72H116.177V11.888C116.177 12.512 116.369 13.032 116.753 13.448C117.137 13.848 117.697 14.048 118.433 14.048C119.185 14.048 119.769 13.792 120.185 13.28C120.617 12.752 120.833 12.048 120.833 11.168V9.776C120.369 10.192 119.817 10.504 119.177 10.712C118.537 10.92 117.929 11.024 117.353 11.024C116.249 11.024 115.249 10.832 114.353 10.448C113.473 10.048 112.777 9.472 112.265 8.72C111.753 7.952 111.497 7.032 111.497 5.96C111.497 4.136 112.121 2.72 113.369 1.712C114.633 0.703999 116.345 0.199999 118.505 0.199999ZM118.481 3.44C117.729 3.44 117.145 3.648 116.729 4.064C116.329 4.464 116.129 5.04 116.129 5.792C116.129 6.544 116.329 7.128 116.729 7.544C117.129 7.944 117.705 8.144 118.457 8.144C119.225 8.144 119.809 7.952 120.209 7.568C120.625 7.168 120.833 6.592 120.833 5.84C120.833 5.088 120.625 4.504 120.209 4.088C119.809 3.656 119.233 3.44 118.481 3.44ZM134.657 0.199999C137.233 0.199999 139.041 0.935999 140.081 2.408C141.137 3.864 141.665 5.976 141.665 8.744C141.665 11.512 141.137 13.632 140.081 15.104C139.041 16.56 137.233 17.288 134.657 17.288C132.065 17.288 130.241 16.56 129.185 15.104C128.145 13.632 127.625 11.512 127.625 8.744C127.625 5.976 128.145 3.864 129.185 2.408C130.241 0.935999 132.065 0.199999 134.657 0.199999ZM134.657 3.44C133.825 3.44 133.233 3.76 132.881 4.4C132.529 5.04 132.353 6.088 132.353 7.544V9.92C132.353 11.392 132.529 12.448 132.881 13.088C133.233 13.728 133.825 14.048 134.657 14.048C135.489 14.048 136.073 13.728 136.409 13.088C136.745 12.448 136.913 11.392 136.913 9.92V7.544C136.913 6.072 136.745 5.024 136.409 4.4C136.073 3.76 135.489 3.44 134.657 3.44ZM157.624 13.304V17H145.168V13.304H149.08V5.84H145.168V3.056C146.24 2.992 147.44 2.712 148.768 2.216C150.096 1.704 151.256 1.12 152.248 0.464H153.856V13.304H157.624Z" fill="white"/>
<path d="M15.632 8.288L14.8 7.7333L14.7999 7.7333L15.632 8.288ZM13.256 10.088L12.9096 9.1499L11.8359 9.54636L12.3729 10.5572L13.256 10.088ZM16.928 17V18H18.5916L17.8111 16.5308L16.928 17ZM10.976 17L10.0766 17.4372L10.3502 18H10.976V17ZM8.048 10.976L8.94739 10.5388L8.67381 9.976H8.048V10.976ZM6.08 10.976V9.976H5.08V10.976H6.08ZM6.08 17V18H7.08V17H6.08ZM0.776 17H-0.224V18H0.776V17ZM0.776 0.487999V-0.512001H-0.224V0.487999H0.776ZM13.904 1.184L13.4169 2.05736L13.4268 2.06289L13.4369 2.06819L13.904 1.184ZM15.8 3.032L14.9167 3.50072L14.9224 3.51156L14.9284 3.52226L15.8 3.032ZM10.616 4.688L9.90889 5.39511L9.90889 5.39511L10.616 4.688ZM6.08 4.256V3.256H5.08V4.256H6.08ZM6.08 7.304H5.08V8.304H6.08V7.304ZM10.616 6.872L11.3231 7.57911L11.3327 7.56955L11.342 7.55974L10.616 6.872ZM15.448 5.552C15.448 6.3684 15.2313 7.08635 14.8 7.7333L16.4641 8.8427C17.1208 7.85765 17.448 6.7516 17.448 5.552H15.448ZM14.7999 7.7333C14.3883 8.35085 13.7783 8.82917 12.9096 9.1499L13.6024 11.0261C14.8137 10.5788 15.7877 9.85715 16.4641 8.8427L14.7999 7.7333ZM12.3729 10.5572L16.0449 17.4692L17.8111 16.5308L14.1391 9.61884L12.3729 10.5572ZM16.928 16H10.976V18H16.928V16ZM11.8754 16.5628L8.94739 10.5388L7.14861 11.4132L10.0766 17.4372L11.8754 16.5628ZM8.048 9.976H6.08V11.976H8.048V9.976ZM5.08 10.976V17H7.08V10.976H5.08ZM6.08 16H0.776V18H6.08V16ZM1.776 17V0.487999H-0.224V17H1.776ZM0.776 1.488H10.88V-0.512001H0.776V1.488ZM10.88 1.488C11.9344 1.488 12.7659 1.69427 13.4169 2.05736L14.3911 0.310635C13.3781 -0.25427 12.1936 -0.512001 10.88 -0.512001V1.488ZM13.4369 2.06819C14.1226 2.43047 14.6023 2.9082 14.9167 3.50072L16.6833 2.56328C16.1657 1.5878 15.3814 0.833532 14.3711 0.299806L13.4369 2.06819ZM14.9284 3.52226C15.2732 4.13521 15.448 4.80547 15.448 5.552H17.448C17.448 4.47452 17.1908 3.46478 16.6716 2.54174L14.9284 3.52226ZM12.048 5.768C12.048 5.08864 11.8109 4.46869 11.3231 3.98089L9.90889 5.39511C9.9971 5.48331 10.048 5.58336 10.048 5.768H12.048ZM11.3231 3.98089C10.8431 3.50091 10.2349 3.256 9.56 3.256V5.256C9.71714 5.256 9.81288 5.29909 9.90889 5.39511L11.3231 3.98089ZM9.56 3.256H6.08V5.256H9.56V3.256ZM5.08 4.256V7.304H7.08V4.256H5.08ZM6.08 8.304H9.56V6.304H6.08V8.304ZM9.56 8.304C10.2349 8.304 10.8431 8.05909 11.3231 7.57911L9.90889 6.16489C9.81288 6.26091 9.71714 6.304 9.56 6.304V8.304ZM11.342 7.55974C11.812 7.06359 12.048 6.4469 12.048 5.768H10.048C10.048 5.9531 9.996 6.07241 9.89005 6.18425L11.342 7.55974ZM33.8652 15.104L33.1811 14.3747L33.8652 15.104ZM20.6653 15.128L19.9773 15.8538L19.9851 15.8611L20.6653 15.128ZM20.6653 2.384L21.3492 3.11354L21.3494 3.1133L20.6653 2.384ZM24.6733 5.192L25.4313 5.84424V5.84424L24.6733 5.192ZM29.8573 12.296L29.1079 11.6337L29.0992 11.6438L29.8573 12.296ZM29.8573 5.192L29.0992 5.8443L29.1079 5.8542L29.8573 5.192ZM27.2653 1.2C29.9469 1.2 31.8699 1.88322 33.1811 3.1133L34.5494 1.6547C32.7566 -0.0272241 30.2796 -0.800001 27.2653 -0.800001V1.2ZM33.1811 3.1133C34.4745 4.32671 35.1933 6.14682 35.1933 8.744H37.1933C37.1933 5.77318 36.36 3.35329 34.5494 1.6547L33.1811 3.1133ZM35.1933 8.744C35.1933 11.3412 34.4745 13.1613 33.1811 14.3747L34.5494 15.8333C36.36 14.1347 37.1933 11.7148 37.1933 8.744H35.1933ZM33.1811 14.3747C31.8699 15.6048 29.9469 16.288 27.2653 16.288V18.288C30.2796 18.288 32.7566 17.5152 34.5494 15.8333L33.1811 14.3747ZM27.2653 16.288C24.5808 16.288 22.6564 15.6113 21.3454 14.3949L19.9851 15.8611C21.7781 17.5247 24.2537 18.288 27.2653 18.288V16.288ZM21.3532 14.4022C20.0749 13.1905 19.3612 11.3621 19.3612 8.744H17.3612C17.3612 11.7259 18.1836 14.1535 19.9773 15.8538L21.3532 14.4022ZM19.3612 8.744C19.3612 6.12515 20.0752 4.30795 21.3492 3.11354L19.9813 1.65446C18.1833 3.34005 17.3612 5.76285 17.3612 8.744H19.3612ZM21.3494 3.1133C22.6606 1.88322 24.5836 1.2 27.2653 1.2V-0.800001C24.2509 -0.800001 21.7739 -0.0272241 19.9811 1.6547L21.3494 3.1133ZM27.2653 3.16C25.9173 3.16 24.7435 3.57723 23.9152 4.53976L25.4313 5.84424C25.787 5.43077 26.3412 5.16 27.2653 5.16V3.16ZM23.9152 4.53976C23.1267 5.45617 22.7853 6.63889 22.7853 7.976H24.7853C24.7853 6.97711 25.0358 6.30382 25.4313 5.84424L23.9152 4.53976ZM22.7853 7.976V9.512H24.7853V7.976H22.7853ZM22.7853 9.512C22.7853 10.8491 23.1267 12.0318 23.9152 12.9482L25.4313 11.6438C25.0358 11.1842 24.7853 10.5109 24.7853 9.512H22.7853ZM23.9152 12.9482C24.7435 13.9108 25.9173 14.328 27.2653 14.328V12.328C26.3412 12.328 25.787 12.0572 25.4313 11.6438L23.9152 12.9482ZM27.2653 14.328C28.6132 14.328 29.787 13.9108 30.6153 12.9482L29.0992 11.6438C28.7435 12.0572 28.1893 12.328 27.2653 12.328V14.328ZM30.6066 12.9582C31.4163 12.0419 31.7692 10.8555 31.7692 9.512H29.7693C29.7693 10.5045 29.5142 11.1741 29.1079 11.6338L30.6066 12.9582ZM31.7692 9.512V7.976H29.7693V9.512H31.7692ZM31.7692 7.976C31.7692 6.63251 31.4163 5.44606 30.6066 4.5298L29.1079 5.8542C29.5142 6.31394 29.7693 6.98348 29.7693 7.976H31.7692ZM30.6153 4.53976C29.787 3.57723 28.6132 3.16 27.2653 3.16V5.16C28.1893 5.16 28.7435 5.43077 29.0992 5.84424L30.6153 4.53976ZM52.7294 2.048L52.0751 2.80426L52.0801 2.80846L52.7294 2.048ZM54.8654 7.28V8.28H55.8654V7.28H54.8654ZM49.8014 7.28H48.8014V8.28H49.8014V7.28ZM49.0334 5L48.2849 5.66303L48.2901 5.66894L48.2954 5.67477L49.0334 5ZM44.5214 5.168L43.726 4.56196L43.7214 4.56802L43.7169 4.57415L44.5214 5.168ZM44.5214 12.32L43.7103 12.9048L43.718 12.9155L43.726 12.926L44.5214 12.32ZM49.1774 12.536L48.4703 11.8289L49.1774 12.536ZM49.9694 10.304V9.304H48.9694V10.304H49.9694ZM54.8654 10.304H55.8654V9.304H54.8654V10.304ZM52.7774 15.488L52.1245 14.7306L52.1202 14.7343L52.7774 15.488ZM40.5134 15.128L39.8063 15.8351L39.8102 15.839L40.5134 15.128ZM40.5134 2.36L39.8102 1.64899L39.8063 1.65289L40.5134 2.36ZM46.9214 1.2C49.2027 1.2 50.8817 1.77172 52.0752 2.80425L53.3837 1.29175C51.7292 -0.13972 49.5362 -0.800001 46.9214 -0.800001V1.2ZM52.0801 2.80846C53.2344 3.79418 53.8654 5.23225 53.8654 7.28H55.8654C55.8654 4.78375 55.0725 2.73382 53.3788 1.28754L52.0801 2.80846ZM54.8654 6.28H49.8014V8.28H54.8654V6.28ZM50.8014 7.28C50.8014 6.139 50.4932 5.11467 49.7715 4.32523L48.2954 5.67477C48.5976 6.00532 48.8014 6.501 48.8014 7.28H50.8014ZM49.782 4.33697C49.0519 3.51268 48.0373 3.16 46.8974 3.16V5.16C47.6135 5.16 48.0229 5.36732 48.2849 5.66303L49.782 4.33697ZM46.8974 3.16C45.6057 3.16 44.4769 3.57646 43.726 4.56196L45.3169 5.77404C45.59 5.41554 46.0452 5.16 46.8974 5.16V3.16ZM43.7169 4.57415C43.0492 5.47867 42.7774 6.6523 42.7774 7.976H44.7774C44.7774 6.8997 45.0016 6.20133 45.326 5.76185L43.7169 4.57415ZM42.7774 7.976V9.512H44.7774V7.976H42.7774ZM42.7774 9.512C42.7774 10.8251 43.0514 11.991 43.7103 12.9048L45.3326 11.7352C44.9994 11.273 44.7774 10.5669 44.7774 9.512H42.7774ZM43.726 12.926C44.4709 13.9038 45.5775 14.328 46.8494 14.328V12.328C46.0414 12.328 45.5959 12.0802 45.3169 11.714L43.726 12.926ZM46.8494 14.328C48.0379 14.328 49.1081 14.0195 49.8845 13.2431L48.4703 11.8289C48.1908 12.1085 47.7089 12.328 46.8494 12.328V14.328ZM49.8845 13.2431C50.6495 12.4781 50.9694 11.4499 50.9694 10.304H48.9694C48.9694 11.0781 48.7613 11.5379 48.4703 11.8289L49.8845 13.2431ZM49.9694 11.304H54.8654V9.304H49.9694V11.304ZM53.8654 10.304C53.8654 12.3411 53.2469 13.763 52.1245 14.7306L53.4304 16.2454C55.092 14.813 55.8654 12.7789 55.8654 10.304H53.8654ZM52.1202 14.7343C50.9858 15.7236 49.3006 16.288 46.9214 16.288V18.288C49.5982 18.288 51.817 17.6524 53.4347 16.2417L52.1202 14.7343ZM46.9214 16.288C44.268 16.288 42.4243 15.6114 41.2166 14.417L39.8102 15.839C41.5146 17.5246 43.9429 18.288 46.9214 18.288V16.288ZM41.2205 14.4209C40.0304 13.2307 39.3534 11.3983 39.3534 8.744H37.3534C37.3534 11.7217 38.1165 14.1453 39.8063 15.8351L41.2205 14.4209ZM39.3534 8.744C39.3534 6.08971 40.0304 4.25725 41.2205 3.06711L39.8063 1.65289C38.1165 3.34275 37.3534 5.76629 37.3534 8.744H39.3534ZM41.2166 3.071C42.4243 1.87663 44.268 1.2 46.9214 1.2V-0.800001C43.9429 -0.800001 41.5146 -0.0366352 39.8102 1.649L41.2166 3.071ZM71.4091 2.048L70.7548 2.80426L70.7597 2.80846L71.4091 2.048ZM73.5451 7.28V8.28H74.5451V7.28H73.5451ZM68.4811 7.28H67.4811V8.28H68.4811V7.28ZM67.7131 5L66.9645 5.66303L66.9698 5.66894L66.9751 5.67477L67.7131 5ZM63.2011 5.168L62.4057 4.56196L62.4011 4.56802L62.3966 4.57415L63.2011 5.168ZM63.2011 12.32L62.3899 12.9048L62.3977 12.9155L62.4057 12.926L63.2011 12.32ZM67.8571 12.536L67.15 11.8289L67.8571 12.536ZM68.6491 10.304V9.304H67.6491V10.304H68.6491ZM73.5451 10.304H74.5451V9.304H73.5451V10.304ZM71.4571 15.488L70.8042 14.7306L70.7999 14.7343L71.4571 15.488ZM59.1931 15.128L58.486 15.8351L58.4899 15.839L59.1931 15.128ZM59.1931 2.36L58.4899 1.64899L58.486 1.65289L59.1931 2.36ZM65.6011 1.2C67.8824 1.2 69.5614 1.77172 70.7548 2.80425L72.0634 1.29175C70.4089 -0.13972 68.2158 -0.800001 65.6011 -0.800001V1.2ZM70.7597 2.80846C71.9141 3.79418 72.5451 5.23225 72.5451 7.28H74.5451C74.5451 4.78375 73.7522 2.73382 72.0585 1.28754L70.7597 2.80846ZM73.5451 6.28H68.4811V8.28H73.5451V6.28ZM69.4811 7.28C69.4811 6.139 69.1729 5.11467 68.4512 4.32523L66.9751 5.67477C67.2773 6.00532 67.4811 6.501 67.4811 7.28H69.4811ZM68.4617 4.33697C67.7316 3.51268 66.717 3.16 65.5771 3.16V5.16C66.2932 5.16 66.7026 5.36732 66.9645 5.66303L68.4617 4.33697ZM65.5771 3.16C64.2854 3.16 63.1565 3.57646 62.4057 4.56196L63.9966 5.77404C64.2697 5.41554 64.7249 5.16 65.5771 5.16V3.16ZM62.3966 4.57415C61.7289 5.47867 61.4571 6.6523 61.4571 7.976H63.4571C63.4571 6.8997 63.6813 6.20133 64.0057 5.76185L62.3966 4.57415ZM61.4571 7.976V9.512H63.4571V7.976H61.4571ZM61.4571 9.512C61.4571 10.8251 61.7311 11.991 62.3899 12.9048L64.0123 11.7352C63.6791 11.273 63.4571 10.5669 63.4571 9.512H61.4571ZM62.4057 12.926C63.1506 13.9038 64.2572 14.328 65.5291 14.328V12.328C64.7211 12.328 64.2756 12.0802 63.9966 11.714L62.4057 12.926ZM65.5291 14.328C66.7176 14.328 67.7878 14.0195 68.5642 13.2431L67.15 11.8289C66.8704 12.1085 66.3886 12.328 65.5291 12.328V14.328ZM68.5642 13.2431C69.3292 12.4781 69.6491 11.4499 69.6491 10.304H67.6491C67.6491 11.0781 67.441 11.5379 67.15 11.8289L68.5642 13.2431ZM68.6491 11.304H73.5451V9.304H68.6491V11.304ZM72.5451 10.304C72.5451 12.3411 71.9265 13.763 70.8042 14.7306L72.1101 16.2454C73.7717 14.813 74.5451 12.7789 74.5451 10.304H72.5451ZM70.7999 14.7343C69.6655 15.7236 67.9803 16.288 65.6011 16.288V18.288C68.2779 18.288 70.4967 17.6524 72.1144 16.2417L70.7999 14.7343ZM65.6011 16.288C62.9477 16.288 61.104 15.6114 59.8963 14.417L58.4899 15.839C60.1943 17.5246 62.6226 18.288 65.6011 18.288V16.288ZM59.9002 14.4209C58.7101 13.2307 58.0331 11.3983 58.0331 8.744H56.0331C56.0331 11.7217 56.7962 14.1453 58.486 15.8351L59.9002 14.4209ZM58.0331 8.744C58.0331 6.08971 58.7101 4.25725 59.9002 3.06711L58.486 1.65289C56.7962 3.34275 56.0331 5.76629 56.0331 8.744H58.0331ZM59.8963 3.071C61.104 1.87663 62.9477 1.2 65.6011 1.2V-0.800001C62.6226 -0.800001 60.1943 -0.0366352 58.4899 1.649L59.8963 3.071ZM76.6488 17H75.6488V18H76.6488V17ZM76.6488 0.487999V-0.512001H75.6488V0.487999H76.6488ZM81.9528 0.487999H82.9528V-0.512001H81.9528V0.487999ZM81.9528 17V18H82.9528V17H81.9528ZM77.6488 17V0.487999H75.6488V17H77.6488ZM76.6488 1.488H81.9528V-0.512001H76.6488V1.488ZM80.9528 0.487999V17H82.9528V0.487999H80.9528ZM81.9528 16H76.6488V18H81.9528V16ZM96.8009 17L95.8428 17.2864L96.0562 18H96.8009V17ZM96.1049 14.672L97.063 14.3856L96.8497 13.672H96.1049V14.672ZM90.3209 14.672V13.672H89.5762L89.3628 14.3856L90.3209 14.672ZM89.6249 17V18H90.3697L90.583 17.2864L89.6249 17ZM84.2009 17L83.2615 16.6573L82.7716 18H84.2009V17ZM90.2249 0.487999V-0.512001H89.5253L89.2855 0.14527L90.2249 0.487999ZM96.3929 0.487999L97.3324 0.14527L97.0926 -0.512001H96.3929V0.487999ZM102.417 17V18H103.846L103.356 16.6573L102.417 17ZM91.4249 10.976L90.4666 10.6904L90.0835 11.976H91.4249V10.976ZM95.0009 10.976V11.976H96.3371L95.9604 10.694L95.0009 10.976ZM93.2729 5.096L94.2324 4.81404L94.0213 4.096H93.2729V5.096ZM93.1769 5.096V4.096H92.4314L92.2186 4.81045L93.1769 5.096ZM97.759 16.7136L97.063 14.3856L95.1468 14.9584L95.8428 17.2864L97.759 16.7136ZM96.1049 13.672H90.3209V15.672H96.1049V13.672ZM89.3628 14.3856L88.6668 16.7136L90.583 17.2864L91.279 14.9584L89.3628 14.3856ZM89.6249 16H84.2009V18H89.6249V16ZM85.1404 17.3427L91.1644 0.830729L89.2855 0.14527L83.2615 16.6573L85.1404 17.3427ZM90.2249 1.488H96.3929V-0.512001H90.2249V1.488ZM95.4535 0.830729L101.478 17.3427L103.356 16.6573L97.3324 0.14527L95.4535 0.830729ZM102.417 16H96.8009V18H102.417V16ZM91.4249 11.976H95.0009V9.976H91.4249V11.976ZM95.9604 10.694L94.2324 4.81404L92.3135 5.37795L94.0415 11.258L95.9604 10.694ZM93.2729 4.096H93.1769V6.096H93.2729V4.096ZM92.2186 4.81045L90.4666 10.6904L92.3833 11.2616L94.1353 5.38155L92.2186 4.81045ZM123.881 2.192L123.13 2.85248L123.138 2.86196L123.881 2.192ZM123.905 15.176L123.135 14.5375L123.131 14.5428L123.905 15.176ZM113.705 15.848L113.074 16.6238L113.08 16.6289L113.705 15.848ZM111.905 11.72V10.72H110.905V11.72H111.905ZM116.177 11.72H117.177V10.72H116.177V11.72ZM116.753 13.448L116.018 14.1263L116.025 14.1335L116.031 14.1405L116.753 13.448ZM120.185 13.28L119.411 12.6468L119.409 12.6494L120.185 13.28ZM120.833 9.776H121.833V7.53639L120.165 9.03143L120.833 9.776ZM119.177 10.712L118.868 9.76097L119.177 10.712ZM114.353 10.448L113.939 11.3584L113.949 11.3629L113.959 11.3671L114.353 10.448ZM112.265 8.72L111.433 9.27473L111.438 9.28279L112.265 8.72ZM113.369 1.712L112.745 0.930151L112.74 0.934058L113.369 1.712ZM116.729 4.064L116.022 3.35689V3.35689L116.729 4.064ZM116.729 7.544L116.008 8.23711L116.015 8.24417L116.022 8.25111L116.729 7.544ZM120.209 7.568L120.901 8.28939L120.902 8.28883L120.209 7.568ZM120.209 4.088L119.475 4.76741L119.488 4.78151L119.502 4.7951L120.209 4.088ZM118.505 1.2C120.743 1.2 122.214 1.81105 123.13 2.85242L124.632 1.53158C123.212 -0.0830553 121.098 -0.800001 118.505 -0.800001V1.2ZM123.138 2.86196C124.084 3.90957 124.657 5.66362 124.657 8.336H126.657C126.657 5.44038 126.046 3.09842 124.623 1.52203L123.138 2.86196ZM124.657 8.336C124.657 11.4079 124.079 13.3992 123.135 14.5375L124.674 15.8145C126.066 14.1368 126.657 11.5681 126.657 8.336H124.657ZM123.131 14.5428C122.229 15.6449 120.763 16.288 118.505 16.288V18.288C121.142 18.288 123.277 17.5231 124.679 15.8092L123.131 14.5428ZM118.505 16.288C116.663 16.288 115.305 15.8474 114.33 15.0671L113.08 16.6289C114.505 17.7686 116.347 18.288 118.505 18.288V16.288ZM114.336 15.0722C113.406 14.3156 112.905 13.2451 112.905 11.72H110.905C110.905 13.7469 111.604 15.4284 113.074 16.6238L114.336 15.0722ZM111.905 12.72H116.177V10.72H111.905V12.72ZM115.177 11.72V11.888H117.177V11.72H115.177ZM115.177 11.888C115.177 12.7355 115.445 13.5061 116.018 14.1263L117.488 12.7697C117.292 12.5579 117.177 12.2885 117.177 11.888H115.177ZM116.031 14.1405C116.66 14.7951 117.517 15.048 118.433 15.048V13.048C117.876 13.048 117.614 12.9009 117.474 12.7555L116.031 14.1405ZM118.433 15.048C119.439 15.048 120.327 14.6908 120.961 13.9106L119.409 12.6494C119.211 12.8932 118.931 13.048 118.433 13.048V15.048ZM120.959 13.9132C121.575 13.1602 121.833 12.2109 121.833 11.168H119.833C119.833 11.8851 119.659 12.3438 119.411 12.6468L120.959 13.9132ZM121.833 11.168V9.776H119.833V11.168H121.833ZM120.165 9.03143C119.813 9.34713 119.386 9.59257 118.868 9.76097L119.486 11.663C120.248 11.4154 120.924 11.0369 121.5 10.5206L120.165 9.03143ZM118.868 9.76097C118.311 9.94185 117.808 10.024 117.353 10.024V12.024C118.05 12.024 118.762 11.8981 119.486 11.663L118.868 9.76097ZM117.353 10.024C116.366 10.024 115.503 9.85288 114.747 9.52885L113.959 11.3671C114.995 11.8111 116.131 12.024 117.353 12.024V10.024ZM114.767 9.53763C114.043 9.20853 113.494 8.74813 113.091 8.15721L111.438 9.28279C112.06 10.1959 112.903 10.8875 113.939 11.3584L114.767 9.53763ZM113.097 8.1653C112.711 7.58679 112.497 6.86724 112.497 5.96H110.497C110.497 7.19676 110.794 8.31721 111.433 9.2747L113.097 8.1653ZM112.497 5.96C112.497 4.39146 113.018 3.28058 113.997 2.48994L112.74 0.934058C111.223 2.15942 110.497 3.88054 110.497 5.96H112.497ZM113.992 2.49383C115.028 1.66817 116.495 1.2 118.505 1.2V-0.800001C116.194 -0.800001 114.238 -0.260174 112.745 0.930166L113.992 2.49383ZM118.481 2.44C117.541 2.44 116.674 2.70495 116.022 3.35689L117.436 4.77111C117.616 4.59105 117.917 4.44 118.481 4.44V2.44ZM116.022 3.35689C115.379 3.99988 115.129 4.86512 115.129 5.792H117.129C117.129 5.21488 117.279 4.92812 117.436 4.77111L116.022 3.35689ZM115.129 5.792C115.129 6.72135 115.38 7.58359 116.008 8.23711L117.45 6.85089C117.278 6.67241 117.129 6.36665 117.129 5.792H115.129ZM116.022 8.25111C116.665 8.89409 117.53 9.144 118.457 9.144V7.144C117.88 7.144 117.593 6.99391 117.436 6.83689L116.022 8.25111ZM118.457 9.144C119.382 9.144 120.253 8.91148 120.901 8.28939L119.516 6.84661C119.364 6.99252 119.067 7.144 118.457 7.144V9.144ZM120.902 8.28883C121.569 7.64781 121.833 6.77763 121.833 5.84H119.833C119.833 6.40637 119.681 6.68819 119.516 6.84717L120.902 8.28883ZM121.833 5.84C121.833 4.90014 121.568 4.03284 120.916 3.38089L119.502 4.7951C119.682 4.97516 119.833 5.27585 119.833 5.84H121.833ZM120.943 3.40859C120.304 2.71892 119.429 2.44 118.481 2.44V4.44C119.036 4.44 119.314 4.59307 119.475 4.76741L120.943 3.40859ZM140.081 2.408L139.264 2.98507L139.271 2.99511L140.081 2.408ZM140.081 15.104L139.268 14.5211L139.267 14.5228L140.081 15.104ZM129.185 15.104L128.368 15.6811L128.375 15.6911L129.185 15.104ZM129.185 2.408L128.372 1.82509L128.371 1.82676L129.185 2.408ZM132.881 4.4L132.004 3.91808L132.881 4.4ZM132.881 13.088L133.757 12.6061L132.881 13.088ZM136.409 13.088L135.523 12.6232L136.409 13.088ZM136.409 4.4L135.523 4.86486L135.528 4.8741L136.409 4.4ZM134.657 1.2C137.057 1.2 138.483 1.88018 139.264 2.98503L140.897 1.83097C139.598 -0.00818634 137.408 -0.800001 134.657 -0.800001V1.2ZM139.271 2.99511C140.153 4.21069 140.665 6.08037 140.665 8.744H142.665C142.665 5.87163 142.12 3.51731 140.89 1.82089L139.271 2.99511ZM140.665 8.744C140.665 11.4065 140.153 13.2873 139.268 14.5211L140.893 15.6869C142.12 13.9767 142.665 11.6175 142.665 8.744H140.665ZM139.267 14.5228C138.488 15.6134 137.061 16.288 134.657 16.288V18.288C137.405 18.288 139.593 17.5066 140.894 15.6852L139.267 14.5228ZM134.657 16.288C132.235 16.288 130.789 15.6124 129.994 14.5169L128.375 15.6911C129.693 17.5076 131.894 18.288 134.657 18.288V16.288ZM130.001 14.527C129.129 13.2922 128.625 11.4089 128.625 8.744H126.625C126.625 11.6151 127.16 13.9718 128.368 15.681L130.001 14.527ZM128.625 8.744C128.625 6.07798 129.129 4.2058 129.998 2.98924L128.371 1.82676C127.16 3.5222 126.625 5.87402 126.625 8.744H128.625ZM129.997 2.99091C130.793 1.8813 132.239 1.2 134.657 1.2V-0.800001C131.89 -0.800001 129.688 -0.00929952 128.372 1.82509L129.997 2.99091ZM134.657 2.44C133.521 2.44 132.56 2.90809 132.004 3.91808L133.757 4.88192C133.905 4.61191 134.128 4.44 134.657 4.44V2.44ZM132.004 3.91808C131.524 4.7912 131.353 6.05578 131.353 7.544H133.353C133.353 6.12022 133.533 5.28879 133.757 4.88192L132.004 3.91808ZM131.353 7.544V9.92H133.353V7.544H131.353ZM131.353 9.92C131.353 11.422 131.524 12.6958 132.004 13.5699L133.757 12.6061C133.534 12.2002 133.353 11.362 133.353 9.92H131.353ZM132.004 13.5699C132.56 14.5799 133.521 15.048 134.657 15.048V13.048C134.128 13.048 133.905 12.8761 133.757 12.6061L132.004 13.5699ZM134.657 15.048C135.199 15.048 135.728 14.9434 136.199 14.685C136.679 14.4223 137.043 14.0315 137.294 13.5528L135.523 12.6232C135.439 12.7845 135.343 12.8737 135.238 12.931C135.126 12.9926 134.946 13.048 134.657 13.048V15.048ZM137.294 13.5528C137.75 12.6849 137.913 11.4192 137.913 9.92H135.913C135.913 11.3648 135.74 12.2111 135.523 12.6232L137.294 13.5528ZM137.913 9.92V7.544H135.913V9.92H137.913ZM137.913 7.544C137.913 6.0485 137.751 4.78344 137.289 3.9259L135.528 4.8741C135.738 5.26455 135.913 6.0955 135.913 7.544H137.913ZM137.294 3.93516C137.043 3.4565 136.679 3.06568 136.199 2.80302C135.728 2.54458 135.199 2.44 134.657 2.44V4.44C134.946 4.44 135.126 4.49542 135.238 4.55698C135.343 4.61432 135.439 4.7035 135.523 4.86483L137.294 3.93516ZM157.624 13.304H158.624V12.304H157.624V13.304ZM157.624 17V18H158.624V17H157.624ZM145.168 17H144.168V18H145.168V17ZM145.168 13.304V12.304H144.168V13.304H145.168ZM149.08 13.304V14.304H150.08V13.304H149.08ZM149.08 5.84H150.08V4.84H149.08V5.84ZM145.168 5.84H144.168V6.84H145.168V5.84ZM145.168 3.056L145.109 2.05778L144.168 2.11392V3.056H145.168ZM148.768 2.216L149.118 3.15284L149.128 3.14905L148.768 2.216ZM152.248 0.464V-0.536H151.948L151.697 -0.370114L152.248 0.464ZM153.856 0.464H154.856V-0.536H153.856V0.464ZM153.856 13.304H152.856V14.304H153.856V13.304ZM156.624 13.304V17H158.624V13.304H156.624ZM157.624 16H145.168V18H157.624V16ZM146.168 17V13.304H144.168V17H146.168ZM145.168 14.304H149.08V12.304H145.168V14.304ZM150.08 13.304V5.84H148.08V13.304H150.08ZM149.08 4.84H145.168V6.84H149.08V4.84ZM146.168 5.84V3.056H144.168V5.84H146.168ZM145.228 4.05422C146.425 3.98275 147.725 3.67316 149.118 3.15279L148.419 1.27921C147.156 1.75084 146.056 2.00125 145.109 2.05778L145.228 4.05422ZM149.128 3.14905C150.511 2.616 151.737 2.00079 152.8 1.29811L151.697 -0.370114C150.775 0.239208 149.682 0.792003 148.409 1.28294L149.128 3.14905ZM152.248 1.464H153.856V-0.536H152.248V1.464ZM152.856 0.464V13.304H154.856V0.464H152.856ZM153.856 14.304H157.624V12.304H153.856V14.304Z" fill="#CAE4C1" mask="url(#path-1-outside-1_152_1594)"/>
</svg>
